<svg width="230" height="43" viewBox="0 0 230 43" fill="none" xmlns="http://www.w3.org/2000/svg">
    <path d="M0.75 41.9125V0.75H41.535V41.9125H0.75Z" stroke="white" stroke-width="1.5"/>
    <path d="M41.9023 41.9125V0.75H229.25V41.9125H41.9023Z" stroke="white" stroke-width="1.5"/>
    <path d="M54.3662 11.3263V31.8647H61.011V16.1589H67.2782V31.8647H73.923V11.3263H54.3662ZM84.8718 24.9179L86.9105 17.5935L89.0248 24.9179H84.8718ZM83.5881 11.3263L76.2638 31.8647H82.7575L83.5126 29.1464H90.1574L90.9125 31.8647H97.5573L90.2329 11.3263H83.5881ZM106.618 11.3263H99.9736V31.8647H106.618V23.3322H112.961V31.9402H119.606V11.3263H112.961V18.4996H106.618V11.3263ZM130.479 24.9179L132.518 17.5935L134.632 24.9179H130.479ZM129.195 11.3263L121.871 31.8647H128.365L129.12 29.1464H135.765L136.52 31.8647H143.165L135.84 11.3263H129.195ZM152.226 11.3263H145.581V31.8647H152.226V23.3322H158.493V31.9402H165.138V11.3263H158.493V18.4996H152.226V11.3263ZM169.14 11.3263V31.8647H175.784V16.1589H184.921V11.4018H169.14V11.3263ZM194.586 11.3263H187.941V31.8647H194.586V11.3263ZM205.233 11.3263H198.588V31.8647H205.233V23.3322H211.5V31.9402H218.145V11.3263H211.5V18.4996H205.233V11.3263Z" fill="white"/>
    <path fill-rule="evenodd" clip-rule="evenodd" d="M21.5205 10.5713C23.9367 10.5713 26.1265 11.4019 27.8632 12.6855L13.0635 27.6363C11.7043 25.8241 10.9492 23.6343 10.9492 21.218C10.9492 15.4039 15.7063 10.5713 21.5205 10.5713ZM29.6754 14.4977C31.1856 16.31 32.0162 18.6507 32.0162 21.218C32.0162 27.1077 27.2591 31.8648 21.4449 31.8648C18.9532 31.8648 16.6124 30.9587 14.8002 29.4485L29.6754 14.4977Z" fill="white"/>
</svg>
